<svg width="24" height="24" viewBox="0 0 24 24" fill="none" xmlns="http://www.w3.org/2000/svg">
<path d="M17.8001 2.1L7.87009 4.59C7.09672 4.8266 6.39323 5.24939 5.82136 5.82127C5.24948 6.39314 4.82669 7.09663 4.59009 7.87L2.10009 17.8C1.35009 20.8 3.19009 22.65 6.20009 21.9L16.1301 19.42C16.9018 19.1803 17.6037 18.7564 18.1751 18.185C18.7465 17.6136 19.1704 16.9117 19.4101 16.14L21.9001 6.2C22.6501 3.2 20.8001 1.35 17.8001 2.1Z" stroke="#292D32" stroke-width="1.5" stroke-linecap="round" stroke-linejoin="round"/>
<path opacity="0.4" d="M15.5 12C15.5 12.6922 15.2947 13.3689 14.9101 13.9445C14.5256 14.5201 13.9789 14.9687 13.3394 15.2336C12.6999 15.4985 11.9961 15.5678 11.3172 15.4327C10.6383 15.2977 10.0146 14.9644 9.52513 14.4749C9.03564 13.9854 8.7023 13.3617 8.56725 12.6828C8.4322 12.0039 8.50152 11.3001 8.76642 10.6606C9.03133 10.0211 9.47993 9.47444 10.0555 9.08986C10.6311 8.70527 11.3078 8.5 12 8.5C12.9283 8.5 13.8185 8.86875 14.4749 9.52513C15.1313 10.1815 15.5 11.0717 15.5 12V12Z" stroke="#292D32" stroke-width="1.5" stroke-linecap="round" stroke-linejoin="round"/>
</svg>
